<?xml version="1.0" encoding="UTF-8"?><svg id="Layer_1" xmlns="http://www.w3.org/2000/svg" viewBox="0 0 122.29 121.54"><defs><style>.cls-1{fill:none;opacity:.8;stroke:#a0a0a0;stroke-miterlimit:10;stroke-width:7px;}</style></defs><path class="cls-1" d="m64.5,12.19l13.41,27.17c.62,1.26,1.83,2.14,3.22,2.34l29.99,4.36c3.51.51,4.92,4.83,2.37,7.3l-21.7,21.15c-1.01.98-1.47,2.4-1.23,3.79l5.12,29.87c.6,3.5-3.07,6.17-6.21,4.51l-26.82-14.1c-1.25-.66-2.74-.66-3.99,0l-26.82,14.1c-3.14,1.65-6.81-1.02-6.21-4.51l5.12-29.87c.24-1.39-.22-2.81-1.23-3.79L7.82,53.37c-2.54-2.48-1.14-6.79,2.37-7.3l29.99-4.36c1.39-.2,2.6-1.08,3.22-2.34l13.41-27.17c1.57-3.18,6.11-3.18,7.68,0Z"/></svg>