<?xml version="1.0" encoding="UTF-8"?><svg id="Layer_1" xmlns="http://www.w3.org/2000/svg" viewBox="0 0 122.29 121.54"><defs><style>.cls-1{fill:none;stroke:#e8af5b;stroke-miterlimit:10;stroke-width:7px;}</style></defs><path class="cls-1" d="m64.8,11.78l13.6,27.56c.63,1.28,1.86,2.17,3.27,2.38l30.41,4.42c3.56.52,4.98,4.89,2.41,7.41l-22,21.45c-1.02,1-1.49,2.43-1.25,3.84l5.19,30.29c.61,3.55-3.11,6.25-6.3,4.58l-27.2-14.3c-1.27-.67-2.78-.67-4.04,0l-27.2,14.3c-3.19,1.67-6.91-1.03-6.3-4.58l5.19-30.29c.24-1.41-.23-2.85-1.25-3.84L7.33,53.53c-2.58-2.51-1.16-6.89,2.41-7.41l30.41-4.42c1.41-.21,2.64-1.09,3.27-2.38l13.6-27.56c1.59-3.23,6.2-3.23,7.79,0Z"/></svg>